# xmcd CD database file
#
# Track frame offsets:
#	150
#	7877
#	19421
#	30235
#	40599
#	54654
#	64197
#	78143
#	88587
#	94101
#	104646
#	110800
#	116041
#
# Disc length: 1694 seconds
#
# Revision: 0
# Processed by: cddbd v1.5.2PL0 Copyright (c) Steve Scherf et al.
# Submitted via: CDex 1.70beta2
#
DISCID=9e069c0d
DTITLE=Will Ryan - Elmo Aardvark Vintage Cartoon Soundtracks
DYEAR=2000
DGENRE=Jazz
TTITLE0=When the Cat's Away
TTITLE1=The Elmo Aardvark Song
TTITLE2=When Elmo Aardvark Came to London Town
TTITLE3=The Moonlight, a Tuba and You
TTITLE4=There's No Ukulele Like a Kokomo!
TTITLE5=Moonlight in Five
TTITLE6=Ever-Lovin' Midnight Aardvark Man
TTITLE7=If Everybody Played the Ukulele
TTITLE8=Is Das Nicht Ein Elmo?
TTITLE9=Wisdom!
TTITLE10=Divertimento for Three or Four Easily Diverted Horns
TTITLE11=I'm Glad I'm Me
TTITLE12=Why Can't Johnny Be Like Elmo?
EXTD=YEAR: 2000
EXTT0=
EXTT1=
EXTT2=
EXTT3=
EXTT4=
EXTT5=
EXTT6=
EXTT7=
EXTT8=
EXTT9=
EXTT10=
EXTT11=
EXTT12=
PLAYORDER=
